<mxfile host="app.diagrams.net" modified="2021-08-25T14:24:48.437Z" agent="5.0 (X11)" etag="H8O85wmCnoJ9-f3FL5F3" version="14.9.9" type="github">
  <diagram id="CAZZak_FirUkJ6t7yPCO" name="Page-1">
    <mxGraphModel dx="1420" dy="1889" grid="1" gridSize="10" guides="1" tooltips="1" connect="1" arrows="1" fold="1" page="1" pageScale="1" pageWidth="850" pageHeight="1100" math="0" shadow="0">
      <root>
        <mxCell id="0" />
        <mxCell id="1" parent="0" />
        <mxCell id="ZQ06bYMubK2WD7voXs-C-1" value="SQL" style="shape=cylinder3;whiteSpace=wrap;html=1;boundedLbl=1;backgroundOutline=1;size=15;" parent="1" vertex="1">
          <mxGeometry x="475" y="370" width="60" height="80" as="geometry" />
        </mxCell>
        <mxCell id="ZQ06bYMubK2WD7voXs-C-31" value="Admin" style="shape=umlActor;verticalLabelPosition=bottom;verticalAlign=top;html=1;outlineConnect=0;" parent="1" vertex="1">
          <mxGeometry x="570" y="-330" width="30" height="60" as="geometry" />
        </mxCell>
        <mxCell id="ZQ06bYMubK2WD7voXs-C-36" value="Http Request" style="rounded=0;whiteSpace=wrap;html=1;" parent="1" vertex="1">
          <mxGeometry x="430" y="10" width="310" height="30" as="geometry" />
        </mxCell>
        <mxCell id="ZQ06bYMubK2WD7voXs-C-44" value="BROWSER" style="swimlane;startSize=0;labelBackgroundColor=#ffffff;" parent="1" vertex="1">
          <mxGeometry x="430" y="-230" width="310" height="220" as="geometry" />
        </mxCell>
        <mxCell id="ZQ06bYMubK2WD7voXs-C-49" value="&lt;div align=&quot;left&quot;&gt;Cache,&lt;br&gt;&lt;/div&gt;&lt;div align=&quot;left&quot;&gt;browser storage,&lt;/div&gt;&lt;div align=&quot;left&quot;&gt;cookies&lt;/div&gt;" style="text;html=1;strokeColor=none;fillColor=none;align=left;verticalAlign=middle;whiteSpace=wrap;rounded=0;" parent="ZQ06bYMubK2WD7voXs-C-44" vertex="1">
          <mxGeometry x="20" y="40" width="130" height="20" as="geometry" />
        </mxCell>
        <mxCell id="ZQ06bYMubK2WD7voXs-C-46" value="Files" style="shape=cylinder3;whiteSpace=wrap;html=1;boundedLbl=1;backgroundOutline=1;size=15;" parent="1" vertex="1">
          <mxGeometry x="555" y="370" width="60" height="80" as="geometry" />
        </mxCell>
        <mxCell id="sVkk13WtHpjU11I0KpUk-1" value="Cache" style="shape=cylinder3;whiteSpace=wrap;html=1;boundedLbl=1;backgroundOutline=1;size=15;" parent="1" vertex="1">
          <mxGeometry x="635" y="370" width="60" height="80" as="geometry" />
        </mxCell>
        <mxCell id="sVkk13WtHpjU11I0KpUk-2" value="Yii" style="rounded=0;whiteSpace=wrap;html=1;direction=south;" parent="1" vertex="1">
          <mxGeometry x="760" y="60" width="30" height="280" as="geometry" />
        </mxCell>
        <mxCell id="sVkk13WtHpjU11I0KpUk-3" value="Vue" style="rounded=0;whiteSpace=wrap;html=1;direction=south;" parent="1" vertex="1">
          <mxGeometry x="760" y="-230" width="30" height="220" as="geometry" />
        </mxCell>
        <mxCell id="Qvu00oB0dJxYOXIbcdhG-11" value="Rest API" style="shape=module;align=left;spacingLeft=20;align=center;verticalAlign=top;fillColor=none;fontStyle=2;fontSize=14;" parent="1" vertex="1">
          <mxGeometry x="420" y="60" width="320" height="280" as="geometry" />
        </mxCell>
        <mxCell id="Qvu00oB0dJxYOXIbcdhG-12" value="BUSINESS LOGIC" style="swimlane;startSize=0;labelBackgroundColor=#ffffff;" parent="1" vertex="1">
          <mxGeometry x="595" y="100" width="120" height="100" as="geometry" />
        </mxCell>
        <mxCell id="Qvu00oB0dJxYOXIbcdhG-13" value="REST&#xa;CONTROLLER" style="swimlane;startSize=0;labelBackgroundColor=#ffffff;" parent="1" vertex="1">
          <mxGeometry x="455" y="100" width="120" height="100" as="geometry" />
        </mxCell>
        <mxCell id="Qvu00oB0dJxYOXIbcdhG-15" value="MODEL" style="swimlane;startSize=0;labelBackgroundColor=#ffffff;labelBorderColor=none;" parent="1" vertex="1">
          <mxGeometry x="455" y="220" width="120" height="100" as="geometry" />
        </mxCell>
        <mxCell id="iRM2-9jAhEdg68rs-l62-1" value="VIEW" style="swimlane;startSize=0;labelBackgroundColor=#ffffff;" vertex="1" parent="1">
          <mxGeometry x="455" y="-120" width="120" height="100" as="geometry" />
        </mxCell>
      </root>
    </mxGraphModel>
  </diagram>
</mxfile>
